# xmcd
#
# Track frame offsets:
#	150
#	15348
#	34868
#	62576
#	87098
#	155764
#	178843
#	219957
#	248400
#	258973
#
# Disc length: 3708 seconds
#
# Revision: 1
# Processed by: cddbd v1.4PL0 Copyright (c) Steve Scherf et al.
# Submitted via: CDmax 2.0
#
DISCID=750e7a0a
DTITLE=Acoustic Hot Tuna - Jorma, Jack and Barry - Live at Minneapolis, MN - 12
DTITLE=12.03 - d2
DYEAR=2003
DGENRE=Blues
TTITLE0=Fur Peace Rag
TTITLE1=Waiting For A Train
TTITLE2=San Francisco Bay Blues
TTITLE3=Living In The Moment
TTITLE4=Good Shepherd
TTITLE5=I Am The Light Of This World
TTITLE6=Just Because
TTITLE7=Hesitation Blues
TTITLE8=Crowd Noise
TTITLE9=Embryonic Journey
EXTD=12-12-03\nThe Cedar Cultural Center, Minneapolis, MN\nw/Barry Mitterhof
EXTD=f - Mandolin\nOpening act: Rob McNurlin\n\nDisc 1\nIntroductions\nThat'l
EXTD=l Never Happen No More\nTrouble In Mind\nNobody Knows You When You're Do
EXTD=wn And Out\nDeath Don't Have No Mercy\nDo Not Go Gentle\nSerpent Of Drea
EXTD=ms\nI'll Let You Know Before I Leave\nBread Line Blues\nHeart Temporary\
EXTD=n\nDisc 2\nFur Peace Rag\nWaiting For A Train\nSan Francisco Bay Blues\n
EXTD=Living In The Moment\nGood Shepherd\nI Am The Light Of This World\nJus
EXTD=t Because\n\nEncore:\nHesitation Blues\n\nEncore 2:\n(crowd noise]\nEmbr
EXTD=yonic Journey\n\nSource: (MS)APK A-51 TL(card8) > V37AP1000 > DA-P1 > wa
EXTD=v > flac\nthis is as close as I can get to the recording info. I borrowe
EXTD=d \nthe deck from a kind friend and plugged in line to the info above. \
EXTD=n(thanks Eric for the line]\nSound quality is exc.\n625mb\n\n**there i
EXTD=s a woman who decided to sing along quite loud to a few songs**
EXTT0=
EXTT1=
EXTT2=
EXTT3=
EXTT4=
EXTT5=
EXTT6=
EXTT7=
EXTT8=
EXTT9=
PLAYORDER=
